<svg xmlns="http://www.w3.org/2000/svg" width="18" height="18" viewBox="0 0 18 18">
  <defs>
    <style>
      .cls-1 {
        fill: #bbbfc4;
        fill-rule: evenodd;
      }
    </style>
  </defs>
  <path id="_1257-dribbble_2x.png" data-name="1257-dribbble@2x.png" class="cls-1" d="M598.037,8222.99a8.99,8.99,0,1,1,8.965-9.03A9,9,0,0,1,598.037,8222.99Zm7.56-7.79a11.416,11.416,0,0,0-4.791-.31,33.43,33.43,0,0,1,1.516,5.47A7.683,7.683,0,0,0,605.6,8215.2Zm-7.566,6.49a7.511,7.511,0,0,0,3-.62,32.015,32.015,0,0,0-1.664-5.82c-0.017.01-.033,0.01-0.05,0.02a10.562,10.562,0,0,0-6.013,4.82A7.639,7.639,0,0,0,598.031,8221.69Zm-7.717-7.88c0,0.08,0,.15,0,0.23a7.642,7.642,0,0,0,2,5.13,12.157,12.157,0,0,1,6.229-5.09c0.1-.04.2-0.07,0.3-0.1-0.2-.43-0.407-0.87-0.629-1.3A28.447,28.447,0,0,1,590.314,8213.81Zm0.153-1.34a28.952,28.952,0,0,0,7.105-.97,50.8,50.8,0,0,0-2.869-4.43A7.706,7.706,0,0,0,590.467,8212.47Zm7.5-6.14a7.631,7.631,0,0,0-1.8.22,40.709,40.709,0,0,1,2.887,4.49,8.688,8.688,0,0,0,4.019-2.8A7.689,7.689,0,0,0,597.969,8206.33Zm5.963,2.8a10.313,10.313,0,0,1-4.281,3.05c0.18,0.36.353,0.73,0.515,1.11,0.057,0.13.112,0.26,0.167,0.39a18.079,18.079,0,0,1,5.355.23A7.652,7.652,0,0,0,603.932,8209.13Z" transform="translate(-589 -8205)"/>
</svg>
