<?xml version="1.0" encoding="utf-8"?>
<!-- Generator: Adobe Illustrator 19.1.0, SVG Export Plug-In . SVG Version: 6.00 Build 0)  -->
<!DOCTYPE svg PUBLIC "-//W3C//DTD SVG 1.1//EN" "http://www.w3.org/Graphics/SVG/1.1/DTD/svg11.dtd">
<svg version="1.1" id="Layer_1" xmlns="http://www.w3.org/2000/svg" xmlns:xlink="http://www.w3.org/1999/xlink" x="0px" y="0px"
	 viewBox="0 0 100 100" style="enable-background:new 0 0 100 100;" xml:space="preserve">
<style type="text/css">
	.st0{fill:#BBBFC4;}
</style>
<path class="st0" d="M88.5,19.2h-77c-4.1,0-7.7,3.6-7.7,7.7v46.3c0,4.1,3.6,7.6,7.7,7.6h77c4.1,0,7.7-3.6,7.7-7.6V26.9
	C96.2,22.8,92.6,19.2,88.5,19.2z M32.4,57.4l-13.9,9.2c-0.3,0.2-0.6,0.3-0.9,0.3c-0.5,0-1-0.2-1.3-0.7c-0.5-0.7-0.3-1.7,0.4-2.1
	l13.9-9.2c0.7-0.5,1.7-0.3,2.1,0.4C33.3,56,33.1,57,32.4,57.4z M83.6,66.2c-0.3,0.4-0.8,0.7-1.3,0.7c-0.3,0-0.6-0.1-0.9-0.3
	l-13.9-9.2c-0.7-0.5-0.9-1.4-0.4-2.1c0.5-0.7,1.4-0.9,2.1-0.4l13.9,9.2C83.9,64.6,84.1,65.5,83.6,66.2z M83.2,37.4L50.9,59
	c-0.3,0.2-0.6,0.3-0.9,0.3s-0.6-0.1-0.9-0.3L16.8,37.4c-0.7-0.5-0.9-1.4-0.4-2.1c0.5-0.7,1.4-0.9,2.1-0.4l31.5,21l31.5-21
	c0.7-0.5,1.7-0.3,2.1,0.4C84.1,36,83.9,37,83.2,37.4z"/>
</svg>
