<?xml version="1.0" encoding="utf-8"?>
<!-- Generator: Adobe Illustrator 19.1.0, SVG Export Plug-In . SVG Version: 6.00 Build 0)  -->
<!DOCTYPE svg PUBLIC "-//W3C//DTD SVG 1.1//EN" "http://www.w3.org/Graphics/SVG/1.1/DTD/svg11.dtd">
<svg version="1.1" id="Layer_1" xmlns="http://www.w3.org/2000/svg" xmlns:xlink="http://www.w3.org/1999/xlink" x="0px" y="0px"
	 viewBox="0 0 100 100" style="enable-background:new 0 0 100 100;" xml:space="preserve">
<style type="text/css">
	.st0{opacity:0;fill:#FFFFFF;}
	.st1{fill:#7E848C;}
	.st2{fill:#EDEFF2;}
</style>
<g>
	<g>
		<path class="st0" d="M13,54.8c-0.6,0-1-0.4-1-1V26.2c0-0.6,0.4-1,1-1h20c0.6,0,1,0.4,1,1v27.7c0,0.6-0.4,1-1,1H13z"/>
		<path class="st1" d="M33,26.2v27.7H13V26.2H33 M33,24.2H13c-1.1,0-2,0.9-2,2v27.7c0,1.1,0.9,2,2,2h20c1.1,0,2-0.9,2-2V26.2
			C35,25.1,34.1,24.2,33,24.2L33,24.2z"/>
	</g>
	<g>
		<path class="st0" d="M13,74.8c-0.6,0-1-0.4-1-1V61.2c0-0.6,0.4-1,1-1h20c0.6,0,1,0.4,1,1v12.7c0,0.6-0.4,1-1,1H13z"/>
		<path class="st1" d="M33,61.2v12.7H13V61.2H33 M33,59.2H13c-1.1,0-2,0.9-2,2v12.7c0,1.1,0.9,2,2,2h20c1.1,0,2-0.9,2-2V61.2
			C35,60.1,34.1,59.2,33,59.2L33,59.2z"/>
	</g>
	<g>
		<path class="st2" d="M40,74.8c-0.6,0-1-0.4-1-1V26.2c0-0.6,0.4-1,1-1h20c0.6,0,1,0.4,1,1v47.7c0,0.6-0.4,1-1,1H40z"/>
		<path class="st1" d="M60,26.2v47.7H40V26.2H60 M60,24.2H40c-1.1,0-2,0.9-2,2v47.7c0,1.1,0.9,2,2,2h20c1.1,0,2-0.9,2-2V26.2
			C62,25.1,61.1,24.2,60,24.2L60,24.2z"/>
	</g>
	<g>
		<path class="st0" d="M67,74.8c-0.6,0-1-0.4-1-1V46.2c0-0.6,0.4-1,1-1h20c0.6,0,1,0.4,1,1v27.7c0,0.6-0.4,1-1,1H67z"/>
		<path class="st1" d="M87,46.2v27.7H67V46.2H87 M87,44.2H67c-1.1,0-2,0.9-2,2v27.7c0,1.1,0.9,2,2,2h20c1.1,0,2-0.9,2-2V46.2
			C89,45.1,88.1,44.2,87,44.2L87,44.2z"/>
	</g>
	<g>
		<path class="st0" d="M67,40.3c-0.6,0-1-0.4-1-1V26.2c0-0.6,0.4-1,1-1h20c0.6,0,1,0.4,1,1v13.2c0,0.6-0.4,1-1,1H67z"/>
		<path class="st1" d="M87,26.2v13.2H67V26.2H87 M87,24.2H67c-1.1,0-2,0.9-2,2v13.2c0,1.1,0.9,2,2,2h20c1.1,0,2-0.9,2-2V26.2
			C89,25.1,88.1,24.2,87,24.2L87,24.2z"/>
	</g>
</g>
</svg>
