<?xml version="1.0" encoding="utf-8"?>
<!-- Generator: Adobe Illustrator 19.1.0, SVG Export Plug-In . SVG Version: 6.00 Build 0)  -->
<!DOCTYPE svg PUBLIC "-//W3C//DTD SVG 1.1//EN" "http://www.w3.org/Graphics/SVG/1.1/DTD/svg11.dtd">
<svg version="1.1" id="Layer_1" xmlns="http://www.w3.org/2000/svg" xmlns:xlink="http://www.w3.org/1999/xlink" x="0px" y="0px"
	 viewBox="0 0 100 100" style="enable-background:new 0 0 100 100;" xml:space="preserve">
<style type="text/css">
	.st0{fill:#EDEFF2;}
	.st1{fill:#7E848C;}
</style>
<g>
	<rect x="34.9" y="33.1" class="st0" width="29.6" height="32.7"/>
	<path class="st1" d="M60.8,45.5c-0.4,0-0.8-0.3-0.8-0.8v-3.1L53.7,48c-0.1,0.1-0.3,0.2-0.5,0.2c-0.2,0-0.4-0.1-0.5-0.2
		c-0.3-0.3-0.3-0.8,0-1.1l6.3-6.3h-3.1c-0.4,0-0.8-0.3-0.8-0.8s0.3-0.8,0.8-0.8h4.9c0,0,0.1,0,0.1,0c0,0,0,0,0.1,0c0,0,0.1,0,0.1,0
		c0,0,0,0,0.1,0c0,0,0,0,0.1,0c0.1,0.1,0.2,0.1,0.2,0.2c0,0,0,0,0,0.1c0,0,0,0,0,0.1c0,0,0,0.1,0,0.1c0,0,0,0,0,0.1c0,0,0,0.1,0,0.1
		v4.9C61.6,45.1,61.2,45.5,60.8,45.5z M42.2,59.6h3.1c0.4,0,0.8,0.3,0.8,0.8c0,0.4-0.3,0.8-0.8,0.8h-4.9c-0.1,0-0.1,0-0.1,0
		c0,0,0,0-0.1,0c0,0-0.1,0-0.1,0c0,0,0,0-0.1,0c0,0,0,0-0.1,0c-0.1-0.1-0.2-0.1-0.2-0.2c0,0,0,0,0-0.1c0,0,0,0,0-0.1
		c0,0,0-0.1,0-0.1c0,0,0,0,0-0.1c0,0,0-0.1,0-0.1v-4.9c0-0.4,0.3-0.8,0.8-0.8c0.4,0,0.8,0.3,0.8,0.8v3.1l6.3-6.3
		c0.3-0.3,0.8-0.3,1.1,0c0.3,0.3,0.3,0.8,0,1.1L42.2,59.6z"/>
	<path class="st1" d="M61,76.5H39c-2.8,0-5-2.2-5-5v-43c0-2.8,2.2-5,5-5h22c2.8,0,5,2.2,5,5v43C66,74.3,63.8,76.5,61,76.5z M64,28.5
		c0-1.7-1.3-3-3-3H39c-1.7,0-3,1.3-3,3v3h28V28.5z M64,33.5H36v33h28V33.5z M64,68.5H36v3c0,1.7,1.3,3,3,3h22c1.7,0,3-1.3,3-3V68.5z
		 M50,73.5c-1.1,0-2-0.9-2-2c0-1.1,0.9-2,2-2c1.1,0,2,0.9,2,2C52,72.6,51.1,73.5,50,73.5z M45,27.5h10c0.6,0,1,0.4,1,1
		c0,0.6-0.4,1-1,1H45c-0.6,0-1-0.4-1-1C44,27.9,44.4,27.5,45,27.5z"/>
	<path class="st1" d="M25,72.5H7c-2.8,0-5-2.2-5-5v-33c0-2.8,2.2-5,5-5h18c2.8,0,5,2.2,5,5v33C30,70.3,27.8,72.5,25,72.5z M28,34.5
		c0-1.7-1.3-3-3-3H7c-1.7,0-3,1.3-3,3v3h24V34.5z M28,39.5H4v23h24V39.5z M28,64.5H4v3c0,1.7,1.3,3,3,3h18c1.7,0,3-1.3,3-3V64.5z"/>
	<path class="st1" d="M93,72.5H75c-2.8,0-5-2.2-5-5v-33c0-2.8,2.2-5,5-5h18c2.8,0,5,2.2,5,5v33C98,70.3,95.8,72.5,93,72.5z M96,34.5
		c0-1.7-1.3-3-3-3H75c-1.7,0-3,1.3-3,3v3h24V34.5z M96,39.5H72v23h24V39.5z M96,64.5H72v3c0,1.7,1.3,3,3,3h18c1.7,0,3-1.3,3-3V64.5z
		"/>
</g>
</svg>
