<?xml version="1.0" encoding="utf-8"?>
<!-- Generator: Adobe Illustrator 19.1.0, SVG Export Plug-In . SVG Version: 6.00 Build 0)  -->
<!DOCTYPE svg PUBLIC "-//W3C//DTD SVG 1.1//EN" "http://www.w3.org/Graphics/SVG/1.1/DTD/svg11.dtd">
<svg version="1.1" id="Layer_1" xmlns="http://www.w3.org/2000/svg" xmlns:xlink="http://www.w3.org/1999/xlink" x="0px" y="0px"
	 viewBox="0 0 100 100" style="enable-background:new 0 0 100 100;" xml:space="preserve">
<style type="text/css">
	.st0{fill:#7E848C;}
	.st1{fill:#EDEFF2;}
</style>
<g>
	<path class="st0" d="M75,71H51v4h18c0.6,0,1,0.4,1,1c0,0.6-0.4,1-1,1H33c-0.6,0-1-0.4-1-1c0-0.6,0.4-1,1-1h16v-4H25
		c-2.8,0-5-2.2-5-5V28c0-2.8,2.2-5,5-5h50c2.8,0,5,2.2,5,5v38C80,68.8,77.8,71,75,71z M78,28c0-1.7-1.3-3-3-3H25c-1.7,0-3,1.3-3,3
		v31h56V28z M78,61H22v5c0,1.7,1.3,3,3,3h50c1.7,0,3-1.3,3-3V61z M50,67c-1.1,0-2-0.9-2-2c0-1.1,0.9-2,2-2c1.1,0,2,0.9,2,2
		C52,66.1,51.1,67,50,67z"/>
	<g>
		<rect x="54.4" y="32.6" class="st0" width="14.5" height="2.2"/>
		<rect x="54.4" y="36.6" class="st0" width="14.5" height="2.2"/>
		<rect x="54.4" y="40.6" class="st0" width="14.5" height="2.2"/>
		<rect x="54.4" y="44.6" class="st0" width="14.5" height="2.2"/>
		<rect x="54.4" y="48.6" class="st0" width="11" height="2.2"/>
	</g>
	<path class="st1" d="M49.5,51.3H30.9c-0.6,0-1-0.4-1-1V33.7c0-0.6,0.4-1,1-1h18.6c0.6,0,1,0.4,1,1v16.6
		C50.5,50.9,50,51.3,49.5,51.3z"/>
	<path class="st0" d="M50.2,52h-20c-0.6,0-1-0.4-1-1V33c0-0.6,0.4-1,1-1h20c0.6,0,1,0.4,1,1v18C51.2,51.6,50.7,52,50.2,52z M49.2,34
		h-18v16h18V34z"/>
</g>
</svg>
