<?xml version="1.0" encoding="utf-8"?>
<!-- Generator: Adobe Illustrator 19.1.0, SVG Export Plug-In . SVG Version: 6.00 Build 0)  -->
<!DOCTYPE svg PUBLIC "-//W3C//DTD SVG 1.1//EN" "http://www.w3.org/Graphics/SVG/1.1/DTD/svg11.dtd">
<svg version="1.1" id="Layer_1" xmlns="http://www.w3.org/2000/svg" xmlns:xlink="http://www.w3.org/1999/xlink" x="0px" y="0px"
	 viewBox="0 0 100 100" style="enable-background:new 0 0 100 100;" xml:space="preserve">
<style type="text/css">
	.st0{fill:#7E848C;}
	.st1{fill:#EDEFF2;}
</style>
<g>
	<path class="st0" d="M74,45.4V75c0,0.6-0.4,1-1,1h-4H57H27c-0.6,0-1-0.4-1-1V45.7c-3.5-1-6-4.4-6-8.7v-2c0,0,0,0,0,0c0,0,0,0,0,0
		c0-0.2,0.1-0.3,0.1-0.4c0,0,0,0,0-0.1l6-10c0.2-0.3,0.5-0.5,0.9-0.5h46c0.4,0,0.7,0.2,0.9,0.5l6,10c0,0,0,0,0,0.1
		c0.1,0.1,0.1,0.3,0.1,0.4c0,0,0,0,0,0c0,0,0,0,0,0v2C80,40.7,77.4,44.1,74,45.4z M58,74h10V54H58V74z M48,26h-9.3l-2.4,8H48V26z
		 M48,36H36v6.7c1.7,2.5,3,3.3,6,3.3c2.6,0,4.4-0.8,6-2.4V36z M42,48c-3.7,0-5.6-1.3-7.2-3.6c-1.9,1.1-5,1.6-6.7,1.6v28h28V53
		c0-0.6,0.4-1,1-1h12c0.6,0,1,0.4,1,1v21h2V45.9c-0.3,0-0.7,0.1-1,0.1c-1.7,0-4.1-0.4-5.8-1.6c-1.9,2.4-4.7,3.6-8.5,3.6
		c-3.1,0-5.8-0.9-7.7-2.6C47.1,47.2,44.9,48,42,48z M72.4,26h-9.1l2.4,8h11.5L72.4,26z M78,36H66v6.5c1.2,1,3.3,1.5,5,1.5
		c3.6,0,7-3.4,7-7V36z M51,68H31c-0.6,0-1-0.4-1-1V53c0-0.6,0.4-1,1-1h20c0.6,0,1,0.4,1,1v14C52,67.6,51.6,68,51,68z M50,54H32v12
		h18V54z"/>
	<path class="st1" d="M22,37c0,3.4,2.2,7,6,7c2,0,4.8-0.6,6-1.5V36H22V37z M27.6,26l-4.8,8h11.5l2.4-8H27.6z"/>
	<path class="st1" d="M64,42.7V36H50v7.6c1.5,1.6,3.9,2.4,6.7,2.4C60.1,46,62.5,44.9,64,42.7z M50,26v8h13.7l-2.4-8H50z"/>
</g>
</svg>
