<?xml version="1.0" encoding="utf-8"?>
<!-- Generator: Adobe Illustrator 19.1.0, SVG Export Plug-In . SVG Version: 6.00 Build 0)  -->
<!DOCTYPE svg PUBLIC "-//W3C//DTD SVG 1.1//EN" "http://www.w3.org/Graphics/SVG/1.1/DTD/svg11.dtd">
<svg version="1.1" id="Layer_1" xmlns="http://www.w3.org/2000/svg" xmlns:xlink="http://www.w3.org/1999/xlink" x="0px" y="0px"
	 viewBox="0 0 100 100" style="enable-background:new 0 0 100 100;" xml:space="preserve">
<style type="text/css">
	.st0{fill:#EDEFF2;}
	.st1{fill:#7E848C;}
</style>
<g>
	<g>
		<path class="st0" d="M40,41.7c-2.3,0-4.2-1.9-4.2-4.2v-3.3c0-2.3,1.9-4.2,4.2-4.2h20c2.3,0,4.2,1.9,4.2,4.2v3.3
			c0,2.3-1.9,4.2-4.2,4.2H40z"/>
		<path class="st1" d="M60,30c2.3,0,4.2,1.9,4.2,4.2v3.3c0,2.3-1.9,4.2-4.2,4.2H40c-2.3,0-4.2-1.9-4.2-4.2v-3.3
			c0-2.3,1.9-4.2,4.2-4.2H60 M60,29.9H40c-2.4,0-4.3,1.9-4.3,4.3v3.3c0,2.4,1.9,4.3,4.3,4.3h20c2.4,0,4.3-1.9,4.3-4.3v-3.3
			C64.3,31.8,62.4,29.9,60,29.9L60,29.9z"/>
	</g>
	<g>
		<path class="st1" d="M35,75.1c-2.3,0-4.2-1.9-4.2-4.2V29.2c0-2.3,1.9-4.2,4.2-4.2h30c2.3,0,4.2,1.9,4.2,4.2v41.7
			c0,2.3-1.9,4.2-4.2,4.2H35z M50.9,73.3l14.1,0c1.4,0,2.5-1.1,2.5-2.5V60l-16.6,0V73.3z M32.6,70.8c0,1.4,1.1,2.5,2.4,2.5h14.2
			l0-13.3l-16.6,0V70.8z M50.9,58.3l16.6,0l0-11.6l-16.6,0V58.3z M32.6,58.3l16.6,0l0-11.6l-16.6,0V58.3z M35,26.7
			c-1.4,0-2.4,1.1-2.4,2.5V45l34.9,0l0-15.8c0-1.4-1.1-2.5-2.5-2.5H35z M42.5,70.1c-0.2,0-0.5-0.1-0.6-0.3L40,67.9l-1.8,1.9
			c-0.2,0.2-0.4,0.3-0.6,0.3c-0.2,0-0.5-0.1-0.6-0.3c-0.3-0.3-0.3-0.9,0-1.2l1.9-1.9l-1.9-1.8c-0.3-0.3-0.3-0.9,0-1.2
			c0.2-0.2,0.4-0.3,0.6-0.3s0.5,0.1,0.6,0.3l1.9,1.9l1.8-1.9c0.2-0.2,0.4-0.3,0.6-0.3s0.5,0.1,0.6,0.3c0.3,0.3,0.3,0.9,0,1.2
			l-1.9,1.9l1.9,1.8c0.3,0.3,0.3,0.9,0,1.2C43,70,42.7,70.1,42.5,70.1z M55.8,68.4c-0.5,0-0.9-0.4-0.9-0.9s0.4-0.9,0.9-0.9h6.7
			c0.5,0,0.9,0.4,0.9,0.9s-0.4,0.9-0.9,0.9H55.8z M55.8,65.1c-0.5,0-0.9-0.4-0.9-0.9c0-0.5,0.4-0.9,0.9-0.9h6.7
			c0.5,0,0.9,0.4,0.9,0.9c0,0.5-0.4,0.9-0.9,0.9H55.8z M40,56.7c-0.5,0-0.9-0.4-0.9-0.9v-2.5l-2.5,0c-0.5,0-0.9-0.4-0.9-0.9
			s0.4-0.9,0.9-0.9h2.5l0-2.5c0-0.5,0.4-0.9,0.9-0.9s0.9,0.4,0.9,0.9v2.5l2.5,0c0.5,0,0.9,0.4,0.9,0.9s-0.4,0.9-0.9,0.9h-2.5l0,2.5
			C40.9,56.3,40.5,56.7,40,56.7z M55.8,53.4c-0.5,0-0.9-0.4-0.9-0.9s0.4-0.9,0.9-0.9h6.7c0.5,0,0.9,0.4,0.9,0.9s-0.4,0.9-0.9,0.9
			H55.8z M40,41.7c-2.3,0-4.2-1.9-4.2-4.2v-3.3c0-2.3,1.9-4.2,4.2-4.2h20c2.3,0,4.2,1.9,4.2,4.2v3.3c0,2.3-1.9,4.2-4.2,4.2H40z
			 M40,31.7c-1.4,0-2.5,1.1-2.5,2.5v3.3c0,1.4,1.1,2.5,2.5,2.5h20c1.4,0,2.5-1.1,2.5-2.5v-3.3c0-1.4-1.1-2.5-2.5-2.5H40z"/>
		<path class="st1" d="M65,25c2.3,0,4.2,1.9,4.2,4.2v41.7c0,2.3-1.9,4.2-4.2,4.2H35c-2.3,0-4.2-1.9-4.2-4.2V29.2
			c0-2.3,1.9-4.2,4.2-4.2H65 M32.5,45h35V29.2c0-1.4-1.1-2.5-2.5-2.5H35c-1.4,0-2.5,1.1-2.5,2.5V45 M50.8,58.3h16.7V46.7H50.8V58.3
			 M32.5,58.3h16.7V46.7H32.5V58.3 M50.8,73.3H65c1.4,0,2.5-1.1,2.5-2.5V60H50.8V73.3 M35,73.3h14.2V60H32.5v10.8
			C32.5,72.2,33.6,73.3,35,73.3 M60,30c2.3,0,4.2,1.9,4.2,4.2v3.3c0,2.3-1.9,4.2-4.2,4.2H40c-2.3,0-4.2-1.9-4.2-4.2v-3.3
			c0-2.3,1.9-4.2,4.2-4.2H60 M40,40h20c1.4,0,2.5-1.1,2.5-2.5v-3.3c0-1.4-1.1-2.5-2.5-2.5H40c-1.4,0-2.5,1.1-2.5,2.5v3.3
			C37.5,38.9,38.6,40,40,40 M40,48.3c0.5,0,0.8,0.4,0.8,0.8v2.5h2.5c0.5,0,0.8,0.4,0.8,0.8c0,0.5-0.4,0.8-0.8,0.8h-2.5v2.5
			c0,0.5-0.4,0.8-0.8,0.8c-0.5,0-0.8-0.4-0.8-0.8v-2.5h-2.5c-0.5,0-0.8-0.4-0.8-0.8c0-0.5,0.4-0.8,0.8-0.8h2.5v-2.5
			C39.2,48.7,39.5,48.3,40,48.3 M62.5,51.7c0.5,0,0.8,0.4,0.8,0.8c0,0.5-0.4,0.8-0.8,0.8h-6.7c-0.5,0-0.8-0.4-0.8-0.8
			c0-0.5,0.4-0.8,0.8-0.8H62.5 M42.5,63.3c0.2,0,0.4,0.1,0.6,0.2c0.3,0.3,0.3,0.9,0,1.2l-1.9,1.9l1.9,1.9c0.3,0.3,0.3,0.9,0,1.2
			c-0.2,0.2-0.4,0.2-0.6,0.2s-0.4-0.1-0.6-0.2L40,67.8l-1.9,1.9c-0.2,0.2-0.4,0.2-0.6,0.2s-0.4-0.1-0.6-0.2c-0.3-0.3-0.3-0.9,0-1.2
			l1.9-1.9l-1.9-1.9c-0.3-0.3-0.3-0.9,0-1.2c0.2-0.2,0.4-0.2,0.6-0.2s0.4,0.1,0.6,0.2l1.9,1.9l1.9-1.9
			C42.1,63.4,42.3,63.3,42.5,63.3 M62.5,63.3c0.5,0,0.8,0.4,0.8,0.8c0,0.5-0.4,0.8-0.8,0.8h-6.7c-0.5,0-0.8-0.4-0.8-0.8
			c0-0.5,0.4-0.8,0.8-0.8H62.5 M62.5,66.7c0.5,0,0.8,0.4,0.8,0.8c0,0.5-0.4,0.8-0.8,0.8h-6.7c-0.5,0-0.8-0.4-0.8-0.8
			c0-0.5,0.4-0.8,0.8-0.8H62.5 M65,24.9H35c-2.4,0-4.3,1.9-4.3,4.3v41.7c0,2.4,1.9,4.3,4.3,4.3h30c2.4,0,4.3-1.9,4.3-4.3V29.2
			C69.3,26.8,67.4,24.9,65,24.9L65,24.9z M32.6,44.9V29.2c0-1.3,1.1-2.4,2.4-2.4h30c1.3,0,2.4,1.1,2.4,2.4v15.7H32.6L32.6,44.9z
			 M50.9,46.8h16.5v11.5H50.9V46.8L50.9,46.8z M32.6,46.8h16.5v11.5H32.6V46.8L32.6,46.8z M50.9,60.1h16.5v10.7
			c0,1.3-1.1,2.4-2.4,2.4H50.9V60.1L50.9,60.1z M32.6,60.1h16.5v13.1H35c-1.3,0-2.4-1.1-2.4-2.4V60.1L32.6,60.1z M60,29.9H40
			c-2.4,0-4.3,1.9-4.3,4.3v3.3c0,2.4,1.9,4.3,4.3,4.3h20c2.4,0,4.3-1.9,4.3-4.3v-3.3C64.3,31.8,62.4,29.9,60,29.9L60,29.9z M40,39.9
			c-1.3,0-2.4-1.1-2.4-2.4v-3.3c0-1.3,1.1-2.4,2.4-2.4h20c1.3,0,2.4,1.1,2.4,2.4v3.3c0,1.3-1.1,2.4-2.4,2.4H40L40,39.9z M40,48.2
			c-0.5,0-0.9,0.4-0.9,0.9v2.4h-2.4c-0.5,0-0.9,0.4-0.9,0.9s0.4,0.9,0.9,0.9h2.4v2.4c0,0.5,0.4,0.9,0.9,0.9c0.5,0,0.9-0.4,0.9-0.9
			v-2.4h2.4c0.5,0,0.9-0.4,0.9-0.9s-0.4-0.9-0.9-0.9h-2.4v-2.4C40.9,48.7,40.5,48.2,40,48.2L40,48.2z M62.5,51.6h-6.7
			c-0.5,0-0.9,0.4-0.9,0.9s0.4,0.9,0.9,0.9h6.7c0.5,0,0.9-0.4,0.9-0.9S63,51.6,62.5,51.6L62.5,51.6z M42.5,63.2
			c-0.2,0-0.5,0.1-0.7,0.3L40,65.3l-1.8-1.8c-0.2-0.2-0.4-0.3-0.7-0.3c-0.2,0-0.5,0.1-0.7,0.3c-0.4,0.4-0.4,1,0,1.3l1.8,1.8
			l-1.8,1.8c-0.4,0.4-0.4,1,0,1.3c0.2,0.2,0.4,0.3,0.7,0.3c0.2,0,0.5-0.1,0.7-0.3L40,68l1.8,1.8c0.2,0.2,0.4,0.3,0.7,0.3
			c0.2,0,0.5-0.1,0.7-0.3c0.4-0.4,0.4-1,0-1.3l-1.8-1.8l1.8-1.8c0.4-0.4,0.4-1,0-1.3C43,63.3,42.7,63.2,42.5,63.2L42.5,63.2z
			 M62.5,63.2h-6.7c-0.5,0-0.9,0.4-0.9,0.9c0,0.5,0.4,0.9,0.9,0.9h6.7c0.5,0,0.9-0.4,0.9-0.9C63.4,63.7,63,63.2,62.5,63.2L62.5,63.2
			z M62.5,66.6h-6.7c-0.5,0-0.9,0.4-0.9,0.9c0,0.5,0.4,0.9,0.9,0.9h6.7c0.5,0,0.9-0.4,0.9-0.9C63.4,67,63,66.6,62.5,66.6L62.5,66.6z
			"/>
	</g>
</g>
</svg>
