<?xml version="1.0" encoding="utf-8"?>
<!-- Generator: Adobe Illustrator 19.1.0, SVG Export Plug-In . SVG Version: 6.00 Build 0)  -->
<!DOCTYPE svg PUBLIC "-//W3C//DTD SVG 1.1//EN" "http://www.w3.org/Graphics/SVG/1.1/DTD/svg11.dtd">
<svg version="1.1" id="Layer_1" xmlns="http://www.w3.org/2000/svg" xmlns:xlink="http://www.w3.org/1999/xlink" x="0px" y="0px"
	 viewBox="0 0 100 100" style="enable-background:new 0 0 100 100;" xml:space="preserve">
<style type="text/css">
	.st0{fill:#EDEFF2;}
	.st1{fill:#7E848C;}
</style>
<g>
	<rect x="29.1" y="58.4" class="st0" width="9.6" height="7.2"/>
	<rect x="61.1" y="44.4" class="st0" width="9.6" height="7.2"/>
	<rect x="29.1" y="44.4" class="st0" width="9.6" height="7.2"/>
	<rect x="45.1" y="44.4" class="st0" width="9.6" height="7.2"/>
	<path class="st1" d="M73,73H27c-3.9,0-7-3.1-7-7V34c0-3.9,3.1-7,7-7h46c3.9,0,7,3.1,7,7v32C80,69.9,76.9,73,73,73z M78,34
		c0-2.8-2.2-5-5-5H27c-2.8,0-5,2.2-5,5v3h56V34z M78,39H22v27c0,2.8,2.2,5,5,5h46c2.8,0,5-2.2,5-5V39z M71,67H61c-0.6,0-1-0.4-1-1
		v-8c0-0.6,0.4-1,1-1h10c0.6,0,1,0.4,1,1v8C72,66.6,71.6,67,71,67z M70,59h-8v6h8V59z M71,53H61c-0.6,0-1-0.4-1-1v-8
		c0-0.6,0.4-1,1-1h10c0.6,0,1,0.4,1,1v8C72,52.6,71.6,53,71,53z M70,45h-8v6h8V45z M55,67H45c-0.6,0-1-0.4-1-1v-8c0-0.6,0.4-1,1-1
		h10c0.6,0,1,0.4,1,1v8C56,66.6,55.6,67,55,67z M54,59h-8v6h8V59z M55,53H45c-0.6,0-1-0.4-1-1v-8c0-0.6,0.4-1,1-1h10
		c0.6,0,1,0.4,1,1v8C56,52.6,55.6,53,55,53z M54,45h-8v6h8V45z M39,67H29c-0.6,0-1-0.4-1-1v-8c0-0.6,0.4-1,1-1h10c0.6,0,1,0.4,1,1v8
		C40,66.6,39.6,67,39,67z M38,59h-8v6h8V59z M39,53H29c-0.6,0-1-0.4-1-1v-8c0-0.6,0.4-1,1-1h10c0.6,0,1,0.4,1,1v8
		C40,52.6,39.6,53,39,53z M38,45h-8v6h8V45z M28,31c1.1,0,2,0.9,2,2s-0.9,2-2,2s-2-0.9-2-2S26.9,31,28,31z M34,31c1.1,0,2,0.9,2,2
		s-0.9,2-2,2s-2-0.9-2-2S32.9,31,34,31z M40,31c1.1,0,2,0.9,2,2s-0.9,2-2,2s-2-0.9-2-2S38.9,31,40,31z"/>
</g>
</svg>
