<?xml version="1.0" encoding="utf-8"?>
<!-- Generator: Adobe Illustrator 19.1.0, SVG Export Plug-In . SVG Version: 6.00 Build 0)  -->
<!DOCTYPE svg PUBLIC "-//W3C//DTD SVG 1.1//EN" "http://www.w3.org/Graphics/SVG/1.1/DTD/svg11.dtd">
<svg version="1.1" id="Layer_1" xmlns="http://www.w3.org/2000/svg" xmlns:xlink="http://www.w3.org/1999/xlink" x="0px" y="0px"
	 viewBox="0 0 100 100" style="enable-background:new 0 0 100 100;" xml:space="preserve">
<style type="text/css">
	.st0{fill:#BBBFC4;}
</style>
<path class="st0" d="M94.8,22.2c-3.3,1.5-6.8,2.5-10.6,2.9c3.8-2.3,6.7-5.9,8.1-10.2c-3.6,2.1-7.5,3.6-11.7,4.5
	c-3.4-3.6-8.1-5.8-13.4-5.8c-10.2,0-18.4,8.2-18.4,18.4c0,1.4,0.2,2.8,0.5,4.2c-15.3-0.8-28.8-8.1-37.9-19.2C9.9,19.6,9,22.8,9,26.2
	c0,6.4,3.2,12,8.2,15.3c-3-0.1-5.8-0.9-8.3-2.3c0,0.1,0,0.2,0,0.2c0,8.9,6.3,16.4,14.8,18c-1.5,0.4-3.2,0.6-4.8,0.6
	c-1.2,0-2.3-0.1-3.5-0.3c2.3,7.3,9.1,12.6,17.2,12.8c-6.3,4.9-14.2,7.9-22.8,7.9c-1.5,0-2.9-0.1-4.4-0.3c8.2,5.2,17.8,8.3,28.2,8.3
	c33.8,0,52.3-28,52.3-52.3c0-0.8,0-1.6-0.1-2.4C89.2,29.1,92.4,25.9,94.8,22.2L94.8,22.2z"/>
</svg>
